<svg t="1689776693291" class="icon" viewBox="0 0 1024 1024" version="1.1" xmlns="http://www.w3.org/2000/svg" p-id="1493" width="16" height="16"><path d="M744.448 959.232h-4.693333c-107.434667-5.546667-252.586667-106.666667-388.266667-270.677333l-50.090667-60.586667C165.717333 464.213333 94.634667 304.042667 111.274667 199.68 122.88 126.122667 232.362667 64 294.826667 64c30.72 0 41.984 15.36 45.824 24.490667 35.413333 62.890667 79.189333 172.202667 79.36 211.456v2.730666l-0.938667 2.56c-7.850667 20.650667-25.258667 30.549333-40.704 39.253334-20.309333 11.52-31.829333 19.029333-33.28 40.704-0.341333 6.570667 5.290667 36.522667 94.805333 146.773333l38.314667 46.250667c89.770667 105.898667 117.930667 117.333333 124.586667 118.272 21.674667 2.986667 31.829333-6.485333 47.36-23.552 11.946667-12.970667 25.344-27.733333 47.530666-30.976l2.816-0.426667 2.730667 0.597333c39.082667 8.277333 139.093333 72.789333 195.925333 120.661334 8.192 5.376 22.528 21.589333 11.178667 57.258666-17.749333 56.064-95.232 139.178667-165.888 139.178667z" fill="#d81e06" p-id="1494"></path></svg>